<svg width="56" height="56" viewBox="0 0 56 56" fill="none" xmlns="http://www.w3.org/2000/svg">
<path fill-rule="evenodd" clip-rule="evenodd" d="M17.9431 7.24373C18.8354 6.87234 19.8598 7.29462 20.2312 8.18692L21.9156 12.2338C22.287 13.1261 21.8647 14.1505 20.9724 14.5219C20.0801 14.8933 19.0557 14.471 18.6843 13.5787L16.9999 9.53183C16.6285 8.63954 17.0508 7.61512 17.9431 7.24373Z" fill="#2F90FF"/>
<path fill-rule="evenodd" clip-rule="evenodd" d="M3.7437 21.4432C4.11509 20.5509 5.13951 20.1286 6.0318 20.5L10.0787 22.1844C10.971 22.5558 11.3932 23.5802 11.0219 24.4725C10.6505 25.3648 9.62606 25.787 8.73376 25.4156L4.68689 23.7313C3.79459 23.3599 3.37231 22.3355 3.7437 21.4432Z" fill="#2F90FF"/>
<path fill-rule="evenodd" clip-rule="evenodd" d="M52.2562 21.4432C52.6276 22.3355 52.2053 23.3599 51.3131 23.7313L47.2662 25.4156C46.3739 25.787 45.3495 25.3648 44.9781 24.4725C44.6067 23.5802 45.029 22.5558 45.9213 22.1844L49.9681 20.5C50.8604 20.1286 51.8848 20.5509 52.2562 21.4432Z" fill="#2F90FF"/>
<path fill-rule="evenodd" clip-rule="evenodd" d="M38.0568 7.24373C38.9491 7.61512 39.3714 8.63954 39 9.53183L37.3156 13.5787C36.9442 14.471 35.9198 14.8933 35.0275 14.5219C34.1352 14.1505 33.713 13.1261 34.0843 12.2338L35.7687 8.18692C36.1401 7.29462 37.1645 6.87234 38.0568 7.24373Z" fill="#2F90FF"/>
<path fill-rule="evenodd" clip-rule="evenodd" d="M1.75 35C1.75 34.0335 2.5335 33.25 3.5 33.25H52.5C53.4665 33.25 54.25 34.0335 54.25 35C54.25 35.9665 53.4665 36.75 52.5 36.75H3.5C2.5335 36.75 1.75 35.9665 1.75 35Z" fill="#2F90FF"/>
<path fill-rule="evenodd" clip-rule="evenodd" d="M8.75 43.75C8.75 42.7835 9.5335 42 10.5 42H45.5C46.4665 42 47.25 42.7835 47.25 43.75C47.25 44.7165 46.4665 45.5 45.5 45.5H10.5C9.5335 45.5 8.75 44.7165 8.75 43.75Z" fill="#2F90FF"/>
<path fill-rule="evenodd" clip-rule="evenodd" d="M28 20.1035C26.2458 20.1035 24.5153 20.5092 22.9439 21.2889C21.3725 22.0687 20.0027 23.2013 18.9417 24.5983C17.8806 25.9952 17.157 27.6187 16.8275 29.3417C16.498 31.0647 16.5714 32.8405 17.0421 34.5305C17.3014 35.4615 16.7568 36.4265 15.8258 36.6858C14.8947 36.9451 13.9297 36.4006 13.6704 35.4695C13.0549 33.2596 12.9589 30.9374 13.3898 28.6842C13.8207 26.431 14.767 24.3081 16.1545 22.4813C17.542 20.6545 19.3332 19.1734 21.3882 18.1537C23.4431 17.134 25.706 16.6035 28 16.6035C30.294 16.6035 32.5569 17.134 34.6118 18.1537C36.6668 19.1734 38.458 20.6545 39.8455 22.4813C41.2331 24.3081 42.1793 26.431 42.6102 28.6842C43.0411 30.9374 42.9451 33.2596 42.3296 35.4695C42.0703 36.4006 41.1053 36.9451 40.1742 36.6858C39.2432 36.4265 38.6986 35.4615 38.9579 34.5305C39.4286 32.8405 39.502 31.0647 39.1725 29.3417C38.843 27.6187 38.1194 25.9952 37.0583 24.5983C35.9973 23.2013 34.6275 22.0687 33.0561 21.2889C31.4847 20.5092 29.7542 20.1035 28 20.1035Z" fill="#2F90FF"/>
</svg>
