<svg width="56" height="56" viewBox="0 0 56 56" fill="none" xmlns="http://www.w3.org/2000/svg">
<path fill-rule="evenodd" clip-rule="evenodd" d="M46.375 14.875C44.9253 14.875 43.75 16.0503 43.75 17.5C43.75 18.9497 44.9253 20.125 46.375 20.125C47.8247 20.125 49 18.9497 49 17.5C49 16.0503 47.8247 14.875 46.375 14.875ZM40.25 17.5C40.25 14.1173 42.9923 11.375 46.375 11.375C49.7577 11.375 52.5 14.1173 52.5 17.5C52.5 20.8827 49.7577 23.625 46.375 23.625C42.9923 23.625 40.25 20.8827 40.25 17.5Z" fill="#2F90FF"/>
<path fill-rule="evenodd" clip-rule="evenodd" d="M26.25 5.25C24.8576 5.25 23.5223 5.80312 22.5377 6.78769C21.5531 7.77226 21 9.10761 21 10.5V32.1562H19.25L20.3269 33.5356C18.7472 34.769 17.5918 36.4647 17.0221 38.3863C16.4524 40.3078 16.4967 42.3592 17.1488 44.2543C17.801 46.1494 19.0285 47.7937 20.66 48.9577C22.2916 50.1217 24.2458 50.7473 26.25 50.7473C28.2542 50.7473 30.2084 50.1217 31.84 48.9577C33.4715 47.7937 34.699 46.1494 35.3512 44.2543C36.0033 42.3592 36.0476 40.3078 35.4779 38.3863C34.9082 36.4647 33.7528 34.769 32.1731 33.5356C31.7483 33.204 31.5 32.6952 31.5 32.1562V10.5C31.5 9.10761 30.9469 7.77226 29.9623 6.78769C28.9777 5.80312 27.6424 5.25 26.25 5.25ZM17.5 31.3395V10.5C17.5 8.17936 18.4219 5.95376 20.0628 4.31282C21.7038 2.67187 23.9294 1.75 26.25 1.75C28.5706 1.75 30.7962 2.67187 32.4372 4.31282C34.0781 5.95376 35 8.17935 35 10.5V31.3395C36.81 32.9584 38.14 35.0522 38.8335 37.3913C39.6104 40.0116 39.55 42.809 38.6607 45.3932C37.7714 47.9775 36.0975 50.2197 33.8727 51.8069C31.6478 53.3942 28.983 54.2473 26.25 54.2473C23.517 54.2473 20.8522 53.3942 18.6273 51.8069C16.4025 50.2197 14.7286 47.9775 13.8393 45.3932C12.95 42.809 12.8896 40.0116 13.6665 37.3913C14.36 35.0522 15.69 32.9584 17.5 31.3395Z" fill="#2F90FF"/>
<path fill-rule="evenodd" clip-rule="evenodd" d="M26.25 38.5C24.8003 38.5 23.625 39.6753 23.625 41.125C23.625 42.5747 24.8003 43.75 26.25 43.75C27.6997 43.75 28.875 42.5747 28.875 41.125C28.875 39.6753 27.6997 38.5 26.25 38.5ZM20.125 41.125C20.125 37.7423 22.8673 35 26.25 35C29.6327 35 32.375 37.7423 32.375 41.125C32.375 44.5077 29.6327 47.25 26.25 47.25C22.8673 47.25 20.125 44.5077 20.125 41.125Z" fill="#2F90FF"/>
<path fill-rule="evenodd" clip-rule="evenodd" d="M26.25 17.5C27.2165 17.5 28 18.2835 28 19.25V36.75C28 37.7165 27.2165 38.5 26.25 38.5C25.2835 38.5 24.5 37.7165 24.5 36.75V19.25C24.5 18.2835 25.2835 17.5 26.25 17.5Z" fill="#2F90FF"/>
</svg>
